<svg width="20" height="20" viewBox="0 0 20 20" fill="none" xmlns="http://www.w3.org/2000/svg">
<g clip-path="url(#clip0_57_1193)">
<path fill-rule="evenodd" clip-rule="evenodd" d="M1.56548 3.23223C2.03433 2.76339 2.67021 2.5 3.33325 2.5H9.16658C9.62682 2.5 9.99992 2.8731 9.99992 3.33333C9.99992 3.79357 9.62682 4.16667 9.16658 4.16667H3.33325C3.11224 4.16667 2.90028 4.25446 2.744 4.41074C2.58772 4.56702 2.49992 4.77899 2.49992 5V16.6667C2.49992 16.8877 2.58772 17.0996 2.744 17.2559C2.90028 17.4122 3.11224 17.5 3.33325 17.5H14.9999C15.2209 17.5 15.4329 17.4122 15.5892 17.2559C15.7455 17.0996 15.8333 16.8877 15.8333 16.6667V10.8333C15.8333 10.3731 16.2063 10 16.6666 10C17.1268 10 17.4999 10.3731 17.4999 10.8333V16.6667C17.4999 17.3297 17.2365 17.9656 16.7677 18.4344C16.2988 18.9033 15.663 19.1667 14.9999 19.1667H3.33325C2.67021 19.1667 2.03433 18.9033 1.56548 18.4344C1.09664 17.9656 0.833252 17.3297 0.833252 16.6667V5C0.833252 4.33696 1.09664 3.70107 1.56548 3.23223Z" fill="white"/>
<path fill-rule="evenodd" clip-rule="evenodd" d="M16.6666 2.39891C16.4188 2.39891 16.1811 2.49735 16.0059 2.67259L8.25241 10.426L7.81191 12.188L9.57389 11.7475L17.3273 3.99408C17.5026 3.81884 17.601 3.58117 17.601 3.33334C17.601 3.08551 17.5026 2.84784 17.3273 2.67259C17.1521 2.49735 16.9144 2.39891 16.6666 2.39891ZM14.8273 1.49408C15.3151 1.00628 15.9767 0.732239 16.6666 0.732239C17.3565 0.732239 18.0181 1.00628 18.5059 1.49408C18.9937 1.98188 19.2677 2.64348 19.2677 3.33334C19.2677 4.02319 18.9937 4.68479 18.5059 5.17259L10.5892 13.0893C10.4824 13.1961 10.3486 13.2718 10.202 13.3085L6.86872 14.1418C6.58474 14.2128 6.28433 14.1296 6.07735 13.9226C5.87036 13.7156 5.78716 13.4152 5.85815 13.1312L6.69148 9.79789C6.72812 9.65137 6.80388 9.51755 6.91068 9.41075L14.8273 1.49408Z" fill="white"/>
</g>
<defs>
<clipPath id="clip0_57_1193">
<rect width="20" height="20" fill="white"/>
</clipPath>
</defs>
</svg>
