<svg width="26" height="26" viewBox="0 0 26 26" fill="none" xmlns="http://www.w3.org/2000/svg">
<path fill-rule="evenodd" clip-rule="evenodd" d="M4.33333 11.9167C4.93164 11.9167 5.41667 12.4017 5.41667 13V22.75H20.5833V13C20.5833 12.4017 21.0684 11.9167 21.6667 11.9167C22.265 11.9167 22.75 12.4017 22.75 13V23.8334C22.75 24.4317 22.265 24.9167 21.6667 24.9167H4.33333C3.73502 24.9167 3.25 24.4317 3.25 23.8334V13C3.25 12.4017 3.73502 11.9167 4.33333 11.9167Z" fill="white"/>
<path fill-rule="evenodd" clip-rule="evenodd" d="M1.08331 7.58333C1.08331 6.98502 1.56834 6.5 2.16665 6.5H23.8333C24.4316 6.5 24.9166 6.98502 24.9166 7.58333V13C24.9166 13.5983 24.4316 14.0833 23.8333 14.0833H2.16665C1.56834 14.0833 1.08331 13.5983 1.08331 13V7.58333ZM3.24998 8.66667V11.9167H22.75V8.66667H3.24998Z" fill="white"/>
<path fill-rule="evenodd" clip-rule="evenodd" d="M13 6.5C13.5983 6.5 14.0834 6.98502 14.0834 7.58333V23.8333C14.0834 24.4316 13.5983 24.9167 13 24.9167C12.4017 24.9167 11.9167 24.4316 11.9167 23.8333V7.58333C11.9167 6.98502 12.4017 6.5 13 6.5Z" fill="white"/>
<path fill-rule="evenodd" clip-rule="evenodd" d="M8.12498 3.24998C7.694 3.24998 7.28068 3.42118 6.97593 3.72593C6.67118 4.03068 6.49998 4.444 6.49998 4.87498C6.49998 5.30596 6.67118 5.71928 6.97593 6.02403C7.28068 6.32878 7.694 6.49998 8.12498 6.49998H11.5418C11.4096 6.15398 11.2422 5.77351 11.0351 5.39706C10.3537 4.15819 9.41837 3.24998 8.12498 3.24998ZM13 7.58331C14.0623 7.37085 14.0622 7.37048 14.0621 7.37009L14.0619 7.36921L14.0615 7.36705L14.0603 7.36126L14.0567 7.34382C14.0537 7.32963 14.0495 7.31037 14.0442 7.28635C14.0335 7.23835 14.0179 7.17127 13.997 7.08782C13.9553 6.92114 13.8923 6.68786 13.8043 6.40991C13.6295 5.85791 13.3502 5.11044 12.9336 4.3529C12.1254 2.88344 10.6233 1.08331 8.12498 1.08331C7.11937 1.08331 6.15494 1.48279 5.44387 2.19387C4.73279 2.90494 4.33331 3.86937 4.33331 4.87498C4.33331 5.88059 4.73279 6.84502 5.44387 7.55609C6.15494 8.26717 7.11937 8.66665 8.12498 8.66665H13C13.3245 8.66665 13.632 8.52113 13.8378 8.27013C14.0435 8.01914 14.1259 7.68911 14.0623 7.37085L13 7.58331Z" fill="white"/>
<path fill-rule="evenodd" clip-rule="evenodd" d="M13.0664 4.3529C13.8746 2.88344 15.3768 1.08331 17.875 1.08331C18.8806 1.08331 19.8451 1.48279 20.5561 2.19387C21.2672 2.90494 21.6667 3.86937 21.6667 4.87498C21.6667 5.88059 21.2672 6.84502 20.5561 7.55609C19.8451 8.26717 18.8806 8.66665 17.875 8.66665H13C12.6755 8.66665 12.368 8.52113 12.1622 8.27013C11.9565 8.01914 11.8741 7.68911 11.9377 7.37085L13 7.58331C11.9377 7.37085 11.9378 7.37048 11.9379 7.37009L11.9381 7.36921L11.9385 7.36705L11.9397 7.36126L11.9433 7.34382C11.9463 7.32963 11.9505 7.31037 11.9558 7.28635C11.9666 7.23835 11.9821 7.17127 12.003 7.08782C12.0447 6.92114 12.1077 6.68786 12.1958 6.40991C12.3706 5.85791 12.6498 5.11044 13.0664 4.3529ZM14.4582 6.49998H17.875C18.306 6.49998 18.7193 6.32878 19.0241 6.02403C19.3288 5.71928 19.5 5.30596 19.5 4.87498C19.5 4.444 19.3288 4.03068 19.0241 3.72593C18.7193 3.42118 18.306 3.24998 17.875 3.24998C16.5816 3.24998 15.6463 4.15819 14.9649 5.39706C14.7578 5.77351 14.5904 6.15398 14.4582 6.49998ZM14.062 7.7976C14.0619 7.79789 14.0619 7.79786 14.062 7.79751L14.062 7.7976Z" fill="white"/>
</svg>
