<svg width="20" height="20" viewBox="0 0 20 20" fill="none" xmlns="http://www.w3.org/2000/svg">
<path fill-rule="evenodd" clip-rule="evenodd" d="M9.99996 1.66667C8.23185 1.66667 6.53616 2.36905 5.28591 3.61929C4.03567 4.86953 3.33329 6.56522 3.33329 8.33333C3.33329 10.915 5.01307 13.4202 6.85492 15.3644C7.7588 16.3185 8.66552 17.0996 9.34719 17.6424C9.60089 17.8444 9.82248 18.0127 9.99996 18.1438C10.1774 18.0127 10.399 17.8444 10.6527 17.6424C11.3344 17.0996 12.2411 16.3185 13.145 15.3644C14.9868 13.4202 16.6666 10.915 16.6666 8.33333C16.6666 6.56522 15.9642 4.86953 14.714 3.61929C13.4638 2.36905 11.7681 1.66667 9.99996 1.66667ZM9.99996 19.1667C9.53771 19.86 9.5375 19.8599 9.53726 19.8597L9.53488 19.8582L9.52932 19.8544L9.51022 19.8415C9.494 19.8305 9.47086 19.8147 9.44126 19.7942C9.38207 19.7532 9.29701 19.6934 9.18979 19.616C8.97541 19.4612 8.67193 19.2352 8.30898 18.9462C7.5844 18.3692 6.61612 17.5357 5.645 16.5106C3.73685 14.4965 1.66663 11.585 1.66663 8.33333C1.66663 6.1232 2.5446 4.00358 4.1074 2.44078C5.67021 0.877974 7.78982 0 9.99996 0C12.2101 0 14.3297 0.877974 15.8925 2.44078C17.4553 4.00358 18.3333 6.1232 18.3333 8.33333C18.3333 11.585 16.2631 14.4965 14.3549 16.5106C13.3838 17.5357 12.4155 18.3692 11.6909 18.9462C11.328 19.2352 11.0245 19.4612 10.8101 19.616C10.7029 19.6934 10.6179 19.7532 10.5587 19.7942C10.5291 19.8147 10.5059 19.8305 10.4897 19.8415L10.4706 19.8544L10.465 19.8582L10.4633 19.8593C10.463 19.8595 10.4622 19.86 9.99996 19.1667ZM9.99996 19.1667L10.4622 19.86C10.1823 20.0467 9.81717 20.0464 9.53726 19.8597L9.99996 19.1667Z" fill="#674DEE"/>
<path fill-rule="evenodd" clip-rule="evenodd" d="M9.99996 6.66667C9.07948 6.66667 8.33329 7.41286 8.33329 8.33333C8.33329 9.25381 9.07948 10 9.99996 10C10.9204 10 11.6666 9.25381 11.6666 8.33333C11.6666 7.41286 10.9204 6.66667 9.99996 6.66667ZM6.66663 8.33333C6.66663 6.49238 8.15901 5 9.99996 5C11.8409 5 13.3333 6.49238 13.3333 8.33333C13.3333 10.1743 11.8409 11.6667 9.99996 11.6667C8.15901 11.6667 6.66663 10.1743 6.66663 8.33333Z" fill="#674DEE"/>
</svg>
