<svg width="34" height="34" viewBox="0 0 34 34" fill="none" xmlns="http://www.w3.org/2000/svg">
<g clip-path="url(#clip0_64_1914)">
<path fill-rule="evenodd" clip-rule="evenodd" d="M28.7413 14.6253C29.6045 15.082 30.3891 15.7757 30.681 16.6507C30.7495 16.856 30.7495 17.0779 30.6812 17.2832C30.3897 18.1584 29.6055 18.8525 28.7425 19.3097C27.8457 19.7848 26.7126 20.0893 25.4906 20.0896L21.0881 20.0908L16.8594 26.702L16.0169 26.1632L16.8491 26.7177C16.313 27.5224 15.4733 27.7625 14.6738 27.6485C14.5869 27.6361 14.502 27.6123 14.4213 27.5777L13.9263 27.3657C13.1031 27.0132 12.4757 26.2045 12.6226 25.1741C12.6254 25.1544 12.6288 25.1347 12.6328 25.1152L13.7029 19.8764L11.677 19.4717L9.93452 21.2151C9.74704 21.4026 9.49271 21.5081 9.22749 21.5081L7.81328 21.5085C7.51369 21.5086 7.22984 21.3743 7.03984 21.1427C6.84984 20.9111 6.77371 20.6064 6.83239 20.3127L7.49939 16.9731L6.83063 13.6338C6.7718 13.3401 6.84777 13.0354 7.03765 12.8037C7.22753 12.5719 7.5113 12.4375 7.81089 12.4374L9.22511 12.4371C9.49032 12.437 9.74471 12.5423 9.93229 12.7298L11.6756 14.4722L13.7014 14.0665L12.6285 8.82824C12.6245 8.80869 12.6211 8.78903 12.6183 8.76927C12.4708 7.73901 13.0978 6.92997 13.9208 6.57699C13.9698 6.55597 14.0205 6.5389 14.0722 6.52596L14.6064 6.39226C15.473 6.12295 16.3363 6.46231 16.844 7.22351L16.8542 7.23916L21.0865 13.8482L25.4889 13.847C26.711 13.8467 27.8442 14.1507 28.7413 14.6253ZM15.1811 25.6142L19.6982 18.5521C19.8819 18.2649 20.1993 18.091 20.5403 18.0909L25.4901 18.0896C26.3893 18.0894 27.2007 17.8631 27.8063 17.5423C28.1757 17.3466 28.4238 17.1416 28.5795 16.9675C28.4237 16.7935 28.1755 16.5886 27.806 16.3931C27.2002 16.0726 26.3887 15.8468 25.4895 15.847L20.5397 15.8483C20.1987 15.8484 19.8812 15.6747 19.6973 15.3876L15.1765 8.32793C15.1726 8.32229 15.169 8.31733 15.1656 8.31299C15.1516 8.31715 15.1376 8.321 15.1234 8.32454L14.6563 8.44146C14.6251 8.45969 14.6079 8.47558 14.5996 8.48459L15.8623 14.6491C15.9156 14.9097 15.863 15.1808 15.716 15.4025C15.569 15.6241 15.3398 15.7781 15.079 15.8303L11.5436 16.5384C11.2158 16.604 10.8768 16.5015 10.6403 16.2651L9.08625 14.7119L9.49972 16.7764C9.52565 16.9059 9.52568 17.0392 9.49983 17.1686L9.08744 19.2334L10.6407 17.6793C10.8771 17.4429 11.216 17.3401 11.5439 17.4056L15.0796 18.1118C15.3404 18.1639 15.5697 18.3177 15.7168 18.5393C15.8639 18.7609 15.9167 19.032 15.8635 19.2926L14.6041 25.4578C14.6162 25.471 14.6474 25.4989 14.7136 25.5272L15.0603 25.6757C15.1045 25.6747 15.1258 25.6673 15.1309 25.6653C15.1353 25.6636 15.1387 25.6618 15.1439 25.6575C15.1492 25.6531 15.1625 25.6411 15.1811 25.6142Z" fill="white"/>
</g>
<defs>
<clipPath id="clip0_64_1914">
<rect width="24" height="24" fill="white" transform="translate(17) rotate(44.9849)"/>
</clipPath>
</defs>
</svg>
